<svg xmlns="http://www.w3.org/2000/svg" width="364.5" viewBox="0 0 364.5 135" height="135" version="1.0"><defs><clipPath id="a"><path d="M 14.511719 5.320312 L 193.433594 5.320312 L 193.433594 129.074219 L 14.511719 129.074219 Z M 14.511719 5.320312"/></clipPath><clipPath id="b"><path d="M 39 5.320312 L 97 5.320312 L 97 60 L 39 60 Z M 39 5.320312"/></clipPath></defs><g clip-path="url(#a)"><path fill="#5CE1E6" d="M 193.273438 5.292969 L 140.011719 5.292969 L 14.726562 129.046875 L 83.859375 81.34375 L 111.484375 129.046875 L 152.457031 129.046875 L 113.136719 61.140625 L 193.273438 5.292969"/></g><g clip-path="url(#b)"><path fill="#FFF" d="M 39.273438 5.292969 L 71.003906 59.140625 L 96.683594 32.726562 L 80.308594 5.292969 L 39.273438 5.292969"/></g><g fill="#FFF"><g><g><path d="M 14.15625 -25.671875 C 16.425781 -25.671875 18.398438 -25.289062 20.078125 -24.53125 C 21.753906 -23.769531 23.039062 -22.691406 23.9375 -21.296875 C 24.84375 -19.910156 25.296875 -18.265625 25.296875 -16.359375 C 25.296875 -14.472656 24.84375 -12.828125 23.9375 -11.421875 C 23.039062 -10.015625 21.753906 -8.9375 20.078125 -8.1875 C 18.398438 -7.445312 16.425781 -7.078125 14.15625 -7.078125 L 8.984375 -7.078125 L 8.984375 0 L 3.046875 0 L 3.046875 -25.671875 Z M 13.828125 -11.921875 C 15.609375 -11.921875 16.960938 -12.304688 17.890625 -13.078125 C 18.828125 -13.847656 19.296875 -14.941406 19.296875 -16.359375 C 19.296875 -17.796875 18.828125 -18.898438 17.890625 -19.671875 C 16.960938 -20.441406 15.609375 -20.828125 13.828125 -20.828125 L 8.984375 -20.828125 L 8.984375 -11.921875 Z M 13.828125 -11.921875" transform="translate(198.196 77.298)"/></g></g></g><g fill="#FFF"><g><g><path d="M 22.921875 -4.765625 L 22.921875 0 L 3.046875 0 L 3.046875 -25.671875 L 22.4375 -25.671875 L 22.4375 -20.90625 L 8.953125 -20.90625 L 8.953125 -15.328125 L 20.859375 -15.328125 L 20.859375 -10.703125 L 8.953125 -10.703125 L 8.953125 -4.765625 Z M 22.921875 -4.765625" transform="translate(232.3 77.298)"/></g></g></g><g fill="#FFF"><g><g><path d="M 26.59375 -25.671875 L 26.59375 0 L 21.703125 0 L 8.90625 -15.578125 L 8.90625 0 L 3.046875 0 L 3.046875 -25.671875 L 7.953125 -25.671875 L 20.71875 -10.078125 L 20.71875 -25.671875 Z M 26.59375 -25.671875" transform="translate(264.169 77.298)"/></g></g></g><g fill="#FFF"><g><g><path d="M 11.484375 0.4375 C 9.453125 0.4375 7.488281 0.164062 5.59375 -0.375 C 3.695312 -0.925781 2.175781 -1.644531 1.03125 -2.53125 L 3.046875 -7 C 4.140625 -6.195312 5.441406 -5.550781 6.953125 -5.0625 C 8.472656 -4.570312 9.992188 -4.328125 11.515625 -4.328125 C 13.203125 -4.328125 14.445312 -4.578125 15.25 -5.078125 C 16.0625 -5.578125 16.46875 -6.242188 16.46875 -7.078125 C 16.46875 -7.691406 16.226562 -8.195312 15.75 -8.59375 C 15.269531 -9 14.65625 -9.320312 13.90625 -9.5625 C 13.164062 -9.8125 12.160156 -10.082031 10.890625 -10.375 C 8.929688 -10.84375 7.328125 -11.304688 6.078125 -11.765625 C 4.835938 -12.234375 3.769531 -12.976562 2.875 -14 C 1.988281 -15.03125 1.546875 -16.398438 1.546875 -18.109375 C 1.546875 -19.609375 1.945312 -20.960938 2.75 -22.171875 C 3.550781 -23.378906 4.765625 -24.335938 6.390625 -25.046875 C 8.023438 -25.753906 10.015625 -26.109375 12.359375 -26.109375 C 13.992188 -26.109375 15.59375 -25.910156 17.15625 -25.515625 C 18.726562 -25.128906 20.097656 -24.570312 21.265625 -23.84375 L 19.4375 -19.328125 C 17.0625 -20.671875 14.691406 -21.34375 12.328125 -21.34375 C 10.660156 -21.34375 9.425781 -21.070312 8.625 -20.53125 C 7.832031 -20 7.4375 -19.289062 7.4375 -18.40625 C 7.4375 -17.53125 7.894531 -16.878906 8.8125 -16.453125 C 9.726562 -16.023438 11.128906 -15.601562 13.015625 -15.1875 C 14.972656 -14.71875 16.570312 -14.25 17.8125 -13.78125 C 19.0625 -13.320312 20.132812 -12.585938 21.03125 -11.578125 C 21.925781 -10.578125 22.375 -9.222656 22.375 -7.515625 C 22.375 -6.046875 21.960938 -4.707031 21.140625 -3.5 C 20.316406 -2.289062 19.085938 -1.332031 17.453125 -0.625 C 15.816406 0.0820312 13.828125 0.4375 11.484375 0.4375 Z M 11.484375 0.4375" transform="translate(301.06 77.298)"/></g></g></g><g fill="#FFF"><g><g><path d="M 22.921875 -4.765625 L 22.921875 0 L 3.046875 0 L 3.046875 -25.671875 L 22.4375 -25.671875 L 22.4375 -20.90625 L 8.953125 -20.90625 L 8.953125 -15.328125 L 20.859375 -15.328125 L 20.859375 -10.703125 L 8.953125 -10.703125 L 8.953125 -4.765625 Z M 22.921875 -4.765625" transform="translate(331.718 77.298)"/></g></g></g><path stroke-linecap="round" transform="matrix(6.72097 0 0 6.4452 143.466 64.109)" fill="none" d="M 0.500191 0.000125539 L 4.603484 0.000125539" stroke="#FFF"/></svg>